HIERARCHY
ROOT root
{
	OFFSET 0.000000 0.000000 0.000000
	CHANNELS 6 Xposition Yposition Zposition Zrotation Yrotation Xrotation
	JOINT lhip
	{
		OFFSET 0.058581 -0.082280 -0.017664
		CHANNELS 3 Zrotation Yrotation Xrotation
		JOINT lknee
		{
			OFFSET 0.043451 -0.386469 0.008037
			CHANNELS 3 Zrotation Yrotation Xrotation
			JOINT lankle
			{
				OFFSET -0.014790 -0.426874 -0.037428
				CHANNELS 3 Zrotation Yrotation Xrotation
				JOINT ltoe
				{
					OFFSET 0.041054 -0.060286 0.122042
					CHANNELS 3 Zrotation Yrotation Xrotation
					End Site
					{
						OFFSET 0.000000 0.000000 0.000000
					}
				}
			}
		}
	}
	JOINT rhip
	{
		OFFSET -0.060310 -0.090513 -0.013543
		CHANNELS 3 Zrotation Yrotation Xrotation
		JOINT rknee
		{
			OFFSET -0.043257 -0.383688 -0.004843
			CHANNELS 3 Zrotation Yrotation Xrotation
			JOINT rankle
			{
				OFFSET 0.019056 -0.420046 -0.034562
				CHANNELS 3 Zrotation Yrotation Xrotation
				JOINT rtoe
				{
					OFFSET -0.034840 -0.062106 0.130323
					CHANNELS 3 Zrotation Yrotation Xrotation
					End Site
					{
						OFFSET 0.000000 0.000000 0.000000
					}
				}
			}
		}
	}
	JOINT lowerback
	{
		OFFSET 0.004439 0.124404 -0.038385
		CHANNELS 3 Zrotation Yrotation Xrotation
		JOINT upperback
		{
			OFFSET 0.004488 0.137956 0.026820
			CHANNELS 3 Zrotation Yrotation Xrotation
			JOINT chest
			{
				OFFSET -0.002265 0.056032 0.002855
				CHANNELS 3 Zrotation Yrotation Xrotation
				JOINT lowerneck
				{
					OFFSET -0.013390 0.211636 -0.033468
					CHANNELS 3 Zrotation Yrotation Xrotation
					JOINT upperneck
					{
						OFFSET 0.010113 0.088937 0.050410
						CHANNELS 3 Zrotation Yrotation Xrotation
						End Site
						{
							OFFSET 0.000000 0.000000 0.000000
						}
					}
				}
				JOINT lclavicle
				{
					OFFSET 0.071702 0.114000 -0.018898
					CHANNELS 3 Zrotation Yrotation Xrotation
					JOINT lshoulder
					{
						OFFSET 0.122921 0.045205 -0.019046
						CHANNELS 3 Zrotation Yrotation Xrotation
						JOINT lelbow
						{
							OFFSET 0.255332 -0.015649 -0.022946
							CHANNELS 3 Zrotation Yrotation Xrotation
							JOINT lwrist
							{
								OFFSET 0.265709 0.012698 -0.007375
								CHANNELS 3 Zrotation Yrotation Xrotation
								End Site
								{
									OFFSET 0.000000 0.000000 0.000000
								}
							}
						}
					}
				}
				JOINT rclavicle
				{
					OFFSET -0.082954 0.112472 -0.023707
					CHANNELS 3 Zrotation Yrotation Xrotation
					JOINT rshoulder
					{
						OFFSET -0.113228 0.046853 -0.008472
						CHANNELS 3 Zrotation Yrotation Xrotation
						JOINT relbow
						{
							OFFSET -0.260127 -0.014369 -0.031269
							CHANNELS 3 Zrotation Yrotation Xrotation
							JOINT rwrist
							{
								OFFSET -0.269108 0.006794 -0.006027
								CHANNELS 3 Zrotation Yrotation Xrotation
								End Site
								{
									OFFSET 0.000000 0.000000 0.000000
								}
							}
						}
					}
				}
			}
		}
	}
}
MOTION
Frames: 7
Frame Time: 0.033333
-2.071108 0.725797 0.994906 27.649817 0.099244 88.209340 2.885965 -3.301944 -12.864631 -1.837412 12.760079 33.642691 3.468228 7.047107 -19.213284 0.000000 -0.000000 0.000000 3.477606 -4.825157 -5.439911 -6.173133 -16.693751 13.582389 -2.887000 -11.249010 -15.248901 0.000000 -0.000000 0.000000 -1.440384 3.211293 14.280518 -2.031227 -2.980040 5.294947 2.929366 -0.379162 -2.204750 -2.444005 24.080494 -8.073156 -0.970998 22.678843 -9.257458 -18.077218 -23.383348 3.217780 -73.191295 -22.744189 33.100340 -88.070914 -74.634453 112.906244 -16.940033 -13.909950 -48.026409 16.352588 27.168346 8.214674 72.525608 29.989942 29.190773 -7.536773 28.353999 11.819380 -11.045919 -1.061828 -3.697097 
-2.074737 0.728386 0.993486 32.766623 0.021695 88.717296 2.799703 -1.857633 -11.865947 -0.791073 15.486233 33.327682 3.350142 8.697548 -19.208260 0.000000 -0.000000 0.000000 3.409236 -5.655732 -6.295191 -6.334910 -19.183530 14.267153 -3.149528 -12.616387 -15.433580 0.000000 -0.000000 0.000000 -1.628791 3.091609 13.686615 -1.535227 -2.968349 4.946901 3.100020 -0.374949 -1.831460 -1.128348 22.068585 -8.025075 0.214208 20.361470 -8.263932 -17.339824 -23.598134 3.127962 -73.395256 -24.178197 34.123383 -86.113988 -74.112330 109.809245 -16.536656 -14.014575 -48.584982 16.263483 25.907622 7.213036 72.782410 29.581773 29.897698 -6.482184 29.402620 12.957299 -8.744114 -0.775144 -3.781300 
-2.077179 0.731775 0.992806 37.397451 -0.039767 89.030422 2.510469 -0.907627 -10.712640 -0.659794 16.258248 31.640311 4.013523 9.666475 -18.280822 0.000000 -0.000000 0.000000 3.489982 -6.330200 -6.909718 -6.776707 -21.118721 14.699055 -3.576483 -14.457944 -15.301004 0.000000 -0.000000 0.000000 -1.439088 2.778103 13.652432 -1.323825 -2.743973 4.021116 3.265900 -0.575552 -1.392446 -0.303553 19.489354 -7.447456 1.375566 18.540148 -7.815463 -17.464379 -23.209375 3.190589 -73.459736 -24.443945 34.328245 -86.122431 -73.559592 110.238246 -16.584429 -13.697073 -49.637394 16.243022 25.650298 7.058225 72.637505 29.250077 30.024491 -5.476846 29.673117 14.332383 -9.047755 -1.010992 -4.471243 
-2.078191 0.736484 0.992672 41.966747 -0.436507 89.271064 1.361024 -1.077989 -9.160738 -1.168288 15.634408 27.125298 3.357873 8.964916 -16.522277 0.000000 -0.000000 0.000000 2.912031 -6.978684 -7.378308 -7.248661 -23.416516 15.100599 -3.837334 -15.487924 -14.971718 0.000000 -0.000000 0.000000 -1.306804 2.318976 13.078715 -1.342674 -3.055914 4.896149 3.127292 -0.469140 -1.761202 0.582222 17.409008 -7.173024 2.196933 16.567556 -7.807335 -17.268252 -22.918693 3.367844 -74.010096 -23.967513 34.429772 -85.992221 -74.948147 111.464896 -18.689063 -13.966435 -48.302786 16.262824 26.082244 6.837264 72.667641 28.935255 29.698573 -6.034667 28.915115 15.029575 -4.496320 -1.162112 -3.994830 
-2.079219 0.741509 0.992357 46.121314 -0.726016 89.739400 0.344608 -1.027355 -7.995666 -1.952060 14.094099 21.827652 4.129195 8.701277 -16.430706 0.000000 -0.000000 0.000000 2.439358 -7.623764 -8.258713 -7.672247 -24.980985 15.716416 -3.901261 -17.177072 -14.399655 0.000000 -0.000000 0.000000 -1.538689 2.111233 12.632396 -1.018970 -3.020969 4.731633 3.160875 -0.263148 -1.426556 1.301273 15.141028 -7.688384 3.708663 14.432574 -6.914496 -16.922623 -23.023379 2.817670 -73.628187 -24.597089 35.482349 -86.305794 -74.685159 110.205205 -17.832052 -14.194410 -49.502052 15.853138 25.899519 5.523901 73.062731 28.084486 30.279644 -7.224390 28.291898 13.601938 0.646828 -2.647721 -2.579931 
-2.078983 0.746201 0.992993 49.999003 -0.682539 89.512638 -0.431918 -1.706425 -6.462410 -2.368035 11.803902 18.081399 4.421917 8.793072 -16.485690 0.000000 -0.000000 0.000000 2.217643 -8.091831 -8.016378 -7.998516 -26.371438 15.831064 -3.900288 -18.536774 -13.833183 0.000000 -0.000000 0.000000 -1.193400 1.956611 12.824613 -0.896669 -3.105020 4.941407 3.182038 0.004121 -1.513241 1.882665 13.234260 -8.170215 4.919140 12.436447 -6.268193 -16.756039 -23.124590 2.370663 -73.463756 -24.711257 36.186609 -86.419353 -74.860699 109.339721 -17.462208 -12.882578 -48.178495 16.191428 26.210864 4.990973 72.581464 27.296311 29.993592 -8.006053 26.988566 12.496633 3.503147 -3.250021 -0.140401 
-2.077430 0.751888 0.992943 53.465206 -0.735567 89.616423 -1.479837 -3.135336 -5.282222 -2.313131 8.511193 14.659429 4.644581 9.382838 -16.549623 0.000000 -0.000000 0.000000 1.606311 -8.157845 -8.594259 -8.298959 -27.345269 17.073049 -4.499784 -19.856998 -13.061867 0.000000 -0.000000 0.000000 -0.907564 2.273099 12.303898 -0.698423 -2.932295 4.756289 3.488242 -0.273972 -0.868122 2.289948 11.172586 -7.865985 5.742652 10.360131 -6.540638 -17.065408 -23.620941 2.985726 -74.322287 -24.608301 36.947543 -84.559340 -76.261507 106.139445 -17.310453 -11.104572 -46.745020 16.391057 26.283590 4.764890 71.907419 27.074005 29.346064 -7.758598 25.431275 12.312526 2.654152 -3.590248 2.157679 
